# xmcd CD database file
#
# Track frame offsets:
#	150
#	16702
#	31636
#	49428
#	70444
#	91258
#	108155
#	125756
#	143637
#	160042
#	177425
#	194668
#	207674
#	222394
#	240171
#	259098
#	275473
#	300463
#
# Disc length: 4234 seconds
#
# Revision: 1
# Processed by: cddbd v1.4PL0 Copyright (c) Steve Scherf et al.
# Submitted via: Feurio! 1.66 - http://www.feurio.com
#
DISCID=00108812
DTITLE=Various Artist - Trash Disco # 7
DYEAR=1900
DGENRE=Top 40 Dance
TTITLE0=Sylvester - You Make Me Feel (Mighty Real)
TTITLE1=Sylvester - Do You Wanna Funk
TTITLE2=Sylvester - Dance Disco Heat
TTITLE3=Aretha Franklin - Freeway Of Love
TTITLE4=Nightforce - D.A.N.C.E.
TTITLE5=Barry White - Can't Get Enough Of Your Love (Upbeat)
TTITLE6=Barry White - Never Never Gonna Give Ya Up
TTITLE7=Marvin Gaye - Got To Give It Up (Part 1)
TTITLE8=Marvin Gaye - What's Going On
TTITLE9=Marvin Gaye - Sexual Healing
TTITLE10=Marvin Gay - Let's Get It On
TTITLE11=Prince - I Wanna Be Your Lover
TTITLE12=LaBelle - Lady Marmalade
TTITLE13=Average White Band - Pick Up The Pieces
TTITLE14=Whispers - Rock Steady
TTITLE15=Olivia Newton-John - Physical
TTITLE16=Lakeside - Fantastic Voyage
TTITLE17=Kool And The Gang - Joanna
EXTD=
EXTT0=
EXTT1=
EXTT2=
EXTT3=
EXTT4=
EXTT5=
EXTT6=
EXTT7=
EXTT8=
EXTT9=
EXTT10=
EXTT11=
EXTT12=
EXTT13=
EXTT14=
EXTT15=
EXTT16=
EXTT17=
PLAYORDER=
